<svg xmlns="http://www.w3.org/2000/svg" viewBox="0 0 128 128"><path fill="#4051b5" d="M14 8v6.074h36.498V8H14zM78.198 8v6.074H116V8H78.198zM14 20.823v6.074h36.498v-6.074H14zM78.198 20.823v6.074H116v-6.074H78.198zM14 33.308v6.074h36.498v-6.074H14zM78.198 33.308v6.074H116v-6.074H78.198zM14 61.383c0 20.921.065 21.798 2.281 28.648 2.38 7.458 5.573 12.857 10.559 18.02 8.733 8.975 20.041 13.396 35.553 13.902 17.793.574 31.317-4.05 40.898-14.038 4.92-5.129 8.603-11.574 10.721-18.761 1.923-6.479 1.988-7.559 1.988-27.872V42.756l-18.803.068-18.836.101s-.108 35.714-.163 46.06c-.03 5.851-.12 16.872-13.85 16.872s-13.772-11.039-13.79-16.872c-.033-10.26-.092-46.229-.092-46.229H14v18.627z"/></svg>

